<?xml version="1.0" encoding="UTF-8" standalone="no"?>
<!-- Created with Inkscape (http://www.inkscape.org/) -->

<svg
   xmlns:dc="http://purl.org/dc/elements/1.1/"
   xmlns:cc="http://creativecommons.org/ns#"
   xmlns:rdf="http://www.w3.org/1999/02/22-rdf-syntax-ns#"
   xmlns:svg="http://www.w3.org/2000/svg"
   xmlns="http://www.w3.org/2000/svg"
   xmlns:sodipodi="http://sodipodi.sourceforge.net/DTD/sodipodi-0.dtd"
   xmlns:inkscape="http://www.inkscape.org/namespaces/inkscape"
   width="48.418751mm"
   height="16.139509mm"
   viewBox="0 0 48.418752 16.139509"
   version="1.1"
   id="svg4624"
   sodipodi:docname="logo.svg"
   inkscape:version="0.92.3 (2405546, 2018-03-11)">
  <defs
     id="defs4618" />
  <sodipodi:namedview
     id="base"
     pagecolor="#ffffff"
     bordercolor="#666666"
     borderopacity="1.0"
     inkscape:pageopacity="0.0"
     inkscape:pageshadow="2"
     inkscape:zoom="1.3671875"
     inkscape:cx="291.0539"
     inkscape:cy="10.83086"
     inkscape:document-units="mm"
     inkscape:current-layer="layer1"
     showgrid="false"
     inkscape:window-width="1873"
     inkscape:window-height="1145"
     inkscape:window-x="47"
     inkscape:window-y="27"
     inkscape:window-maximized="1" />
  <metadata
     id="metadata4621">
    <rdf:RDF>
      <cc:Work
         rdf:about="">
        <dc:format>image/svg+xml</dc:format>
        <dc:type
           rdf:resource="http://purl.org/dc/dcmitype/StillImage" />
        <dc:title></dc:title>
      </cc:Work>
    </rdf:RDF>
  </metadata>
  <g
     inkscape:label="Ebene 1"
     inkscape:groupmode="layer"
     id="layer1"
     transform="translate(23.522867,-135.55949)">
    <path
       inkscape:connector-curvature="0"
       id="path14"
       style="fill:#05a9ad;fill-opacity:1;fill-rule:nonzero;stroke:none;stroke-width:0.01138734"
       d="m -4.3102571,136.76757 h 4.74066464 v 1.06722 H -3.0977332 v 2.47322 h 3.21293874 v 1.06689 H -3.0977332 v 2.78848 h 3.52814074 v 1.06667 H -4.3102571 v -8.46248" />
    <path
       inkscape:connector-curvature="0"
       id="path16"
       style="fill:#05a9ad;fill-opacity:1;fill-rule:nonzero;stroke:none;stroke-width:0.01138734"
       d="m 8.7958917,138.27093 c -0.5940791,-0.38808 -1.2365522,-0.58201 -2.3278018,-0.58201 -1.952132,0 -3.2494912,1.41864 -3.2494912,3.31002 0,1.98856 1.4305912,3.3099 3.1886826,3.3099 0.8367426,0 1.0549236,-0.0847 1.3580552,-0.14546 v -2.57039 H 5.9832171 v -0.99403 h 2.9946447 v 4.4009 c -0.4608472,0.15782 -1.2610356,0.37609 -2.582537,0.37609 -2.6795553,0 -4.4617883,-1.72176 -4.4617883,-4.41339 0,-2.60645 1.891438,-4.34052 4.4737448,-4.34052 1.2367798,0 1.7824612,0.18231 2.4856284,0.4243 l -0.097018,1.22459" />
    <path
       inkscape:connector-curvature="0"
       id="path18"
       style="fill:#05a9ad;fill-opacity:1;fill-rule:nonzero;stroke:none;stroke-width:0.01138734"
       d="m 11.11128,136.76757 h 1.212183 v 7.39581 H 15.8639 v 1.06667 h -4.75262 v -8.46248" />
    <path
       inkscape:connector-curvature="0"
       id="path20"
       style="fill:#05a9ad;fill-opacity:1;fill-rule:nonzero;stroke:none;stroke-width:0.01138734"
       d="m 20.822289,144.30884 c 1.951906,0 2.788761,-1.62457 2.788761,-3.3099 0,-1.72148 -0.921578,-3.3222 -2.788761,-3.31002 -1.866955,-0.0122 -2.788758,1.58854 -2.788758,3.31002 0,1.68533 0.836742,3.3099 2.788758,3.3099 z m 0,-7.6868 c 2.570238,0 4.073594,1.86741 4.073594,4.3769 0,2.57029 -1.491058,4.37701 -4.073594,4.37701 -2.582762,0 -4.073478,-1.80672 -4.073478,-4.37701 0,-2.50949 1.502785,-4.3769 4.073478,-4.3769" />
    <path
       inkscape:connector-curvature="0"
       id="path22"
       style="fill:#05a9ad;fill-opacity:1;fill-rule:nonzero;stroke:none;stroke-width:0.01138734"
       d="m -4.3102571,148.48323 h 0.3108743 v 0.2563 h 0.00706 c 0.1270827,-0.20439 0.3073439,-0.29775 0.5723278,-0.29775 0.2083882,0 0.4167765,0.10372 0.5120885,0.34295 0.1236667,-0.25279 0.39571,-0.34295 0.5582077,-0.34295 0.4591376,0 0.6252787,0.29126 0.6252787,0.67572 v 1.13313 h -0.3321685 v -1.05356 c 0,-0.21818 -0.052951,-0.49192 -0.3214648,-0.49192 -0.3391153,0 -0.4732575,0.32557 -0.4732575,0.65477 v 0.89071 h -0.3320549 v -1.05356 c 0,-0.21818 -0.053066,-0.49192 -0.3214648,-0.49192 -0.3391153,0 -0.4732584,0.32557 -0.4732584,0.65477 v 0.89071 h -0.3321683 v -1.7674" />
    <path
       inkscape:connector-curvature="0"
       id="path24"
       style="fill:#05a9ad;fill-opacity:1;fill-rule:nonzero;stroke:none;stroke-width:0.01138734"
       d="m -1.3000127,150.72867 c 0.042361,0.0139 0.098842,0.0278 0.155437,0.0278 0.29675358,0 0.39548205,-0.40198 0.39548205,-0.4365 0,-0.0383 -0.0422465,-0.12811 -0.0634271,-0.18708 l -0.61127315,-1.64965 h 0.3640538 l 0.48384793,1.46234 h 0.007176 l 0.49443903,-1.46234 h 0.33558462 l -0.66410982,1.80542 c -0.12366664,0.33948 -0.25439369,0.73119 -0.69235076,0.73119 -0.1060158,0 -0.1660274,-0.0139 -0.2260381,-0.0242 l 0.021181,-0.26694" />
    <path
       inkscape:connector-curvature="0"
       id="path26"
       style="fill:#05a9ad;fill-opacity:1;fill-rule:nonzero;stroke:none;stroke-width:0.01138734"
       d="m 1.6252816,147.65147 h 0.332055 v 2.59916 h -0.332055 v -2.59916" />
    <path
       inkscape:connector-curvature="0"
       id="path28"
       style="fill:#05a9ad;fill-opacity:1;fill-rule:nonzero;stroke:none;stroke-width:0.01138734"
       d="m 2.6074398,148.48323 h 0.3320549 v 1.7674 H 2.6074398 Z m 0.3533491,-0.39504 H 2.5862596 v -0.36702 h 0.3745293 v 0.36702" />
    <path
       inkscape:connector-curvature="0"
       id="path30"
       style="fill:#05a9ad;fill-opacity:1;fill-rule:nonzero;stroke:none;stroke-width:0.01138734"
       d="m 4.8082712,149.38781 c 0,-0.36733 -0.1729733,-0.68266 -0.526323,-0.68266 -0.335585,0 -0.5014988,0.35688 -0.5014988,0.65842 0,0.3325 0.1907387,0.62368 0.5014988,0.62368 0.3109889,0 0.526323,-0.27045 0.526323,-0.59944 z m 0.3321685,0.78653 c 0,0.53716 -0.2826334,0.84551 -0.9290927,0.84551 -0.190852,0 -0.3567658,-0.0242 -0.6464599,-0.12139 l 0.035415,-0.30132 c 0.2542791,0.11436 0.4060728,0.15933 0.6498754,0.15933 0.3497054,0 0.5580937,-0.23206 0.5580937,-0.60629 v -0.17329 h -0.00694 c -0.1412035,0.18358 -0.3745303,0.27374 -0.6040991,0.27374 -0.5157322,0 -0.770012,-0.41222 -0.770012,-0.86975 0,-0.45403 0.2613395,-0.9391 0.8053134,-0.9391 0.3179341,0 0.4946659,0.11431 0.593508,0.30505 h 0.00706 v -0.2636 h 0.3073436 v 1.69111" />
    <path
       inkscape:connector-curvature="0"
       id="path32"
       style="fill:#05a9ad;fill-opacity:1;fill-rule:nonzero;stroke:none;stroke-width:0.01138734"
       d="m 5.705935,147.65147 h 0.3321692 v 1.08477 h 0.00694 c 0.1200223,-0.18687 0.3285252,-0.29446 0.5793879,-0.29446 0.4661984,0 0.6747002,0.28423 0.6747002,0.75886 v 1.04999 H 6.966967 v -0.91486 c 0,-0.4123 -0.091782,-0.61332 -0.3814764,-0.63062 -0.3779455,0 -0.547389,0.29767 -0.547389,0.72777 v 0.81771 H 5.7059324 v -2.59916" />
    <path
       inkscape:connector-curvature="0"
       id="path34"
       style="fill:#05a9ad;fill-opacity:1;fill-rule:nonzero;stroke:none;stroke-width:0.01138734"
       d="M 8.8219667,148.74683 H 8.3450659 v 0.96645 c 0,0.20449 0.1271964,0.31542 0.279104,0.31542 0.1024861,0 0.1766185,-0.0311 0.226154,-0.0622 v 0.2773 c -0.074248,0.0207 -0.1767335,0.0485 -0.2827496,0.0485 -0.342645,0 -0.5545633,-0.15942 -0.5545633,-0.5131 v -1.03238 H 7.6068246 v -0.2636 H 8.013011 v -0.40884 l 0.3320549,-0.10395 v 0.51279 h 0.4769008 v 0.2636" />
    <path
       inkscape:connector-curvature="0"
       id="path36"
       style="fill:#05a9ad;fill-opacity:1;fill-rule:nonzero;stroke:none;stroke-width:0.01138734"
       d="m 10.423826,147.66423 v 3.1345 h -0.138242 v -3.1345 h 0.138242" />
    <path
       inkscape:connector-curvature="0"
       id="path38"
       style="fill:#05a9ad;fill-opacity:1;fill-rule:nonzero;stroke:none;stroke-width:0.01138734"
       d="m 11.984119,148.48323 h 0.310986 v 0.2563 h 0.0071 c 0.126966,-0.20439 0.307571,-0.29775 0.572098,-0.29775 0.20839,0 0.416662,0.10372 0.512204,0.34295 0.123552,-0.25279 0.395597,-0.34295 0.558093,-0.34295 0.459363,0 0.625278,0.29126 0.625278,0.67572 v 1.13313 h -0.332055 v -1.05356 c 0,-0.21818 -0.05295,-0.49192 -0.321351,-0.49192 -0.339002,0 -0.47337,0.32557 -0.47337,0.65477 v 0.89071 H 13.11113 v -1.05356 c 0,-0.21818 -0.05329,-0.49192 -0.321919,-0.49192 -0.338888,0 -0.473031,0.32557 -0.473031,0.65477 v 0.89071 h -0.332058 v -1.7674" />
    <path
       inkscape:connector-curvature="0"
       id="path40"
       style="fill:#05a9ad;fill-opacity:1;fill-rule:nonzero;stroke:none;stroke-width:0.01138734"
       d="m 14.99425,150.72867 c 0.04259,0.0139 0.09918,0.0278 0.15555,0.0278 0.296412,0 0.395483,-0.40198 0.395483,-0.4365 0,-0.0383 -0.04213,-0.12811 -0.06343,-0.18708 l -0.61116,-1.64965 h 0.363941 l 0.483847,1.46234 h 0.0071 l 0.494325,-1.46234 h 0.335927 l -0.664338,1.80542 c -0.123893,0.33948 -0.254052,0.73119 -0.692237,0.73119 -0.105785,0 -0.166028,-0.0139 -0.226038,-0.0242 l 0.02108,-0.26694" />
    <path
       inkscape:connector-curvature="0"
       id="path42"
       style="fill:#05a9ad;fill-opacity:1;fill-rule:nonzero;stroke:none;stroke-width:0.01138734"
       d="m 17.74281,149.90411 c 0.130843,0.0831 0.318162,0.12459 0.413704,0.12459 0.15168,0 0.338886,-0.0622 0.338886,-0.25292 0,-0.32214 -0.780715,-0.2946 -0.780715,-0.78982 0,-0.36759 0.278988,-0.54418 0.635639,-0.54418 0.155666,0 0.282862,0.0311 0.413589,0.0692 l -0.02824,0.28411 c -0.0739,-0.0448 -0.272384,-0.0899 -0.349705,-0.0899 -0.169443,0 -0.317707,0.0691 -0.317707,0.21476 0,0.36044 0.780489,0.25665 0.780489,0.82105 0,0.37791 -0.307346,0.55135 -0.62858,0.55135 -0.169785,0 -0.342875,-0.0174 -0.495236,-0.097 l 0.01788,-0.29118" />
    <path
       inkscape:connector-curvature="0"
       id="path44"
       style="fill:#05a9ad;fill-opacity:1;fill-rule:nonzero;stroke:none;stroke-width:0.01138734"
       d="m 20.208854,148.74683 h -0.47713 v 0.96645 c 0,0.20449 0.127196,0.31542 0.279446,0.31542 0.102257,0 0.176276,-0.0311 0.225812,-0.0622 v 0.2773 c -0.07413,0.0207 -0.176392,0.0485 -0.282523,0.0485 -0.342871,0 -0.554564,-0.15942 -0.554564,-0.5131 v -1.03238 h -0.406413 v -0.2636 h 0.406413 v -0.40884 l 0.331829,-0.10395 v 0.51279 h 0.47713 v 0.2636" />
    <path
       inkscape:connector-curvature="0"
       id="path46"
       style="fill:#05a9ad;fill-opacity:1;fill-rule:nonzero;stroke:none;stroke-width:0.01138734"
       d="m 20.491486,150.72867 c 0.04248,0.0139 0.09907,0.0278 0.15544,0.0278 0.296751,0 0.396052,-0.40198 0.396052,-0.4365 0,-0.0383 -0.04259,-0.12811 -0.06388,-0.18708 l -0.61093,-1.64965 h 0.363595 l 0.48385,1.46234 h 0.0074 l 0.494777,-1.46234 h 0.335018 l -0.663996,1.80542 c -0.123439,0.33948 -0.254279,0.73119 -0.692351,0.73119 -0.105901,0 -0.165915,-0.0139 -0.226038,-0.0242 l 0.02108,-0.26694" />
    <path
       inkscape:connector-curvature="0"
       id="path48"
       style="fill:#05a9ad;fill-opacity:1;fill-rule:nonzero;stroke:none;stroke-width:0.01138734"
       d="m 22.434739,147.65147 h 0.331938 v 2.59916 h -0.331938 v -2.59916" />
    <path
       inkscape:connector-curvature="0"
       id="path50"
       style="fill:#05a9ad;fill-opacity:1;fill-rule:nonzero;stroke:none;stroke-width:0.01138734"
       d="m 24.540484,149.19707 c 0,-0.27022 -0.162496,-0.49192 -0.448776,-0.49192 -0.324992,0 -0.459138,0.26338 -0.48396,0.49192 z m 0.215221,0.98069 c -0.127196,0.045 -0.271929,0.11455 -0.568684,0.11455 -0.639284,0 -0.93251,-0.38135 -0.93251,-0.95654 0,-0.52324 0.335699,-0.89399 0.844372,-0.89399 0.600114,0 0.794837,0.42964 0.794837,0.99799 h -1.285972 c 0,0.35016 0.279104,0.58893 0.593396,0.58893 0.219091,0 0.473485,-0.11093 0.554561,-0.1765 v 0.32556" />
    <path
       inkscape:connector-curvature="0"
       id="path52"
       style="fill:#ffffff;fill-opacity:1;fill-rule:nonzero;stroke:none;stroke-width:0.01138734"
       d="m -10.32562,135.55949 h -0.466654 l -0.102031,1.29599 -0.62414,3.8977 -0.898689,3.57256 -5.931655,1.05599 -2.90039,5.05532 13.4801312,-0.10386 0.5264366,0.004 v -4.94722 l -1.1683414,-0.28913 -1.6696124,-1.60646 -0.245055,-7.93488" />
    <path
       inkscape:connector-curvature="0"
       id="path54"
       style="fill:#05a9ad;fill-opacity:1;fill-rule:nonzero;stroke:none;stroke-width:0.01138734"
       d="m -20.358256,150.27091 c 0,0 -0.06427,-2.34077 3.314559,-3.75245 1.433655,-0.59917 2.967382,-0.97548 4.381018,-1.45188 1.163138,-0.39166 1.892952,-1.2615 1.892952,-1.90405 v -7.60042 h -9.295169 c -1.95048,0 -3.457971,1.57828 -3.457971,3.5286 V 151.699 h 16.2802558 v -1.42809 H -20.358256" />
    <path
       inkscape:connector-curvature="0"
       id="path56"
       style="fill:#05a9ad;fill-opacity:1;fill-rule:nonzero;stroke:none;stroke-width:0.01138734"
       d="m -10.362971,143.16253 c 0,0.64255 0.7092041,1.60781 1.8721929,1.99991 0.3525521,0.11788 0.879217,0.22152 1.2481669,0.32183 v -9.92216 h -3.1205878 l 2.56e-4,7.60042" />
  </g>
</svg>
